# This file uses centimeters as units for non-parametric coordinates.

mtllib Ice_boi.mtl
g default
v -5.848822 -0.058939 -0.415470
v -5.970751 -0.058939 -0.975964
v -6.489521 -0.058939 -1.457476
v -6.909801 -0.058939 -1.457476
v -7.623402 -0.058939 -0.744058
v -7.673344 -0.058939 -0.415470
v -7.808330 -0.058939 -0.005728
v -7.737385 -0.058939 0.404014
v -7.288460 -0.058939 0.912679
v -6.909801 -0.058939 1.174740
v -6.489521 -0.058939 1.251590
v -6.110863 -0.058939 0.950737
v -5.848822 -0.058939 0.404015
v -5.755301 -0.058939 -0.005728
v -5.806292 0.058939 -0.431111
v -5.799185 0.047502 -0.432097
v -5.935385 0.058939 -1.020316
v -5.927611 0.047476 -1.022399
v -6.477949 0.058939 -1.522892
v -6.474010 0.047228 -1.529354
v -6.911772 0.058939 -1.523834
v -6.916604 0.047412 -1.529479
v -7.661074 0.058939 -0.775807
v -7.668196 0.047551 -0.778182
v -7.713572 0.058939 -0.430945
v -7.720803 0.047565 -0.432107
v -7.855502 0.058939 0.000978
v -7.862958 0.047532 -0.000554
v -7.781460 0.058939 0.428019
v -7.788184 0.047422 0.430965
v -7.309375 0.058939 0.962463
v -7.315386 0.047388 0.966654
v -6.911836 0.058939 1.236745
v -6.916597 0.047304 1.242589
v -6.476016 0.058939 1.316550
v -6.474022 0.047153 1.323417
v -6.082027 0.058939 1.004288
v -6.075207 0.047381 1.006730
v -5.806176 0.058939 0.429584
v -5.799219 0.047429 0.430967
v -5.707948 0.058939 -0.000077
v -5.700700 0.047480 -0.000557
v -7.774373 0.058939 0.436043
v -7.780653 0.053490 0.433932
v -6.911786 0.058939 -0.881972
v -6.911802 0.058939 -0.258701
v -6.911812 0.058939 0.198346
v -6.911825 0.058939 0.725664
v -6.911834 0.058939 1.131375
v -7.509872 0.058939 -1.143755
v -7.517723 0.047483 -1.145885
v -7.452071 -0.058939 -1.132663
v -6.911798 0.058939 -0.431015
v -7.794348 0.058939 -0.185128
v -7.801360 0.047546 -0.187553
v -7.751843 -0.058939 -0.177191
v -6.911805 0.058939 -0.106852
vt 0.026006 0.051553
vt 0.099869 0.051553
vt 0.987648 0.050256
vt 0.987648 0.050543
vt 0.933798 0.050543
vt 0.099869 0.051799
vt 0.191391 0.051799
vt 0.191391 0.051957
vt 0.245870 0.051957
vt 0.245870 0.052015
vt 0.382966 0.052015
vt 0.382966 0.052009
vt 0.426155 0.052009
vt 0.482318 0.052009
vt 0.482318 0.051967
vt 0.536939 0.051967
vt 0.536939 0.051873
vt 0.624055 0.051873
vt 0.624055 0.051746
vt 0.683800 0.051746
vt 0.683800 0.051619
vt 0.739309 0.051619
vt 0.739309 0.051426
vt 0.801539 0.051426
vt 0.801539 0.051127
vt 0.879577 0.051127
vt 0.879577 0.050820
vt 0.933798 0.050820
vt 0.026006 0.041327
vt 0.099869 0.041327
vt 0.026006 0.050256
vt 0.191391 0.041327
vt 0.099869 0.050256
vt 0.245870 0.041327
vt 0.191391 0.050256
vt 0.382966 0.041327
vt 0.245870 0.050256
vt 0.426155 0.041327
vt 0.382966 0.050256
vt 0.482318 0.041327
vt 0.426155 0.050256
vt 0.536939 0.041327
vt 0.482318 0.050256
vt 0.624055 0.041327
vt 0.536939 0.050256
vt 0.683800 0.041327
vt 0.624055 0.050256
vt 0.739309 0.041327
vt 0.683800 0.050256
vt 0.801539 0.041327
vt 0.739309 0.050256
vt 0.879577 0.041327
vt 0.801539 0.050256
vt 0.933798 0.041327
vt 0.879577 0.050256
vt 0.987648 0.041327
vt 0.933798 0.050256
vt 0.805388 0.282737
vt 0.957810 0.449360
vt 0.994516 0.723801
vt 0.901203 0.856737
vt 0.510666 0.924603
vt 0.393825 0.866258
vt 0.231049 0.816492
vt 0.116366 0.701700
vt 0.054703 0.441948
vt 0.056555 0.261137
vt 0.126170 0.110574
vt 0.306717 0.057401
vt 0.542073 0.096999
vt 0.694727 0.159648
vt 0.536939 0.051873
vt 0.115440 0.697800
vt 0.536939 0.051482
vt 0.704814 0.718254
vt 0.514113 0.583783
vt 0.374272 0.485174
vt 0.212930 0.371404
vt 0.088795 0.283871
vt 0.331317 0.052015
vt 0.655868 0.957728
vt 0.331317 0.050256
vt 0.331317 0.041327
vt 0.566836 0.620960
vt 0.458229 0.052009
vt 0.301186 0.837935
vt 0.458229 0.050256
vt 0.458229 0.041327
vt 0.467653 0.551021
vn 0.012005 0.999924 -0.002671
vn 0.913704 -0.352088 -0.202928
vn 0.776256 -0.410464 -0.478484
vn 0.015466 0.999834 -0.009596
vn 0.013273 0.999912 0.000009
vn 0.928789 -0.370608 0.000154
vn 0.400426 -0.475747 -0.783150
vn 0.009021 0.999804 -0.017628
vn -0.300732 -0.434658 -0.848901
vn -0.006877 0.999797 -0.018962
vn -0.016463 0.999726 -0.016611
vn -0.648931 -0.404268 -0.644559
vn -0.887635 -0.378116 -0.262932
vn -0.013989 0.999894 -0.003990
vn -0.918027 -0.338004 -0.207316
vn -0.011722 0.999928 -0.002642
vn -0.010428 0.999940 -0.003430
vn -0.893322 -0.339690 -0.294255
vn -0.928672 -0.370285 0.021400
vn -0.013134 0.999914 0.000295
vn -0.801515 -0.389699 0.453550
vn -0.007405 0.999971 0.001562
vn -0.626444 -0.392748 0.673289
vn -0.022049 0.999475 0.023750
vn -0.008063 0.999942 0.007120
vn -0.637495 0.526065 0.562899
vn -0.350058 -0.440317 0.826789
vn -0.089573 0.973031 0.212573
vn 0.235336 -0.489580 0.839600
vn 0.007457 0.999615 0.026725
vn 0.722597 -0.422449 0.547165
vn 0.013022 0.999866 0.009904
vn 0.866650 -0.380763 0.322393
vn 0.012537 0.999911 0.004674
vn 0.876945 -0.439367 -0.194742
vn 0.739928 -0.497518 -0.452749
vn 0.380340 -0.555951 -0.739094
vn -0.286227 -0.516240 -0.807199
vn -0.614619 -0.489286 -0.618742
vn -0.849936 -0.463159 -0.251181
vn -0.883040 -0.424683 -0.199714
vn -0.858882 -0.426921 -0.282950
vn -0.889160 -0.457167 0.019796
vn -0.765718 -0.475468 0.433135
vn -0.599116 -0.477837 0.642442
vn -0.334242 -0.522364 0.784486
vn 0.222409 -0.568654 0.791939
vn 0.689597 -0.504754 0.519307
vn 0.829897 -0.465090 0.308161
vn 0.889734 -0.456480 -0.000395
vn 0.000000 1.000000 0.000000
vn 0.000000 1.000000 -0.000000
vn 0.000000 1.000000 -0.000000
vn 0.000000 1.000000 0.000000
vn 0.000000 1.000000 0.000000
vn 0.000000 1.000000 0.000000
vn 0.000000 1.000000 -0.000000
s 1
g pCylinder3
usemtl initialShadingGroup
f 15/1/1 16/31/2 18/33/3 17/2/4
f 16/3/2 15/4/1 41/5/5 42/57/6
f 17/6/4 18/33/3 20/35/7 19/7/8
f 19/8/8 20/35/7 22/37/9 21/9/10
f 50/80/11 51/82/12 24/39/13 23/11/14
f 23/12/14 24/39/13 26/41/15 25/13/16
f 54/85/17 55/87/18 28/43/19 27/14/20
f 27/15/20 28/43/19 30/45/21 29/16/22
f 29/17/22 30/45/21 32/47/23 31/18/24 43/72/25 44/74/26
f 31/19/24 32/47/23 34/49/27 33/20/28
f 33/21/28 34/49/27 36/51/29 35/22/30
f 35/23/30 36/51/29 38/53/31 37/24/32
f 37/25/32 38/53/31 40/55/33 39/26/34
f 39/27/34 40/55/33 42/57/6 41/28/5
f 1/29/35 2/30/36 18/33/3 16/31/2
f 2/30/36 3/32/37 20/35/7 18/33/3
f 3/32/37 4/34/38 22/37/9 20/35/7
f 51/82/12 52/83/39 5/36/40 24/39/13
f 5/36/40 6/38/41 26/41/15 24/39/13
f 55/87/18 56/88/42 7/40/43 28/43/19
f 7/40/43 8/42/44 30/45/21 28/43/19
f 8/42/44 9/44/45 32/47/23 30/45/21
f 9/44/45 10/46/46 34/49/27 32/47/23
f 10/46/46 11/48/47 36/51/29 34/49/27
f 11/48/47 12/50/48 38/53/31 36/51/29
f 12/50/48 13/52/49 40/55/33 38/53/31
f 13/52/49 14/54/50 42/57/6 40/55/33
f 14/54/50 1/56/35 16/3/2 42/57/6
f 41/71/5 15/58/1 53/84/51 46/76/52 57/89/53
f 21/61/10 45/75/54 17/59/4 19/60/8
f 39/70/34 47/77/55 48/78/56 37/69/32
f 29/17/22 44/74/26 43/72/25
f 37/69/32 48/78/56 49/79/57 35/68/30
f 35/68/30 49/79/57 33/67/28
f 23/62/14 45/75/54 21/61/10 50/81/11
f 46/76/52 53/84/51 25/63/16 54/86/17 57/89/53
f 48/78/56 47/77/55 27/64/20 29/65/22 43/73/25
f 49/79/57 48/78/56 43/73/25 31/66/24
f 33/67/28 49/79/57 31/66/24
f 21/10/10 22/37/9 51/82/12 50/80/11
f 4/34/38 52/83/39 51/82/12 22/37/9
f 53/84/51 15/58/1 17/59/4 45/75/54
f 25/63/16 53/84/51 45/75/54 23/62/14
f 25/13/16 26/41/15 55/87/18 54/85/17
f 6/38/41 56/88/42 55/87/18 26/41/15
f 57/89/53 54/86/17 27/64/20 47/77/55
f 41/71/5 57/89/53 47/77/55 39/70/34
